**********************
PowerShell transcript start
Start time: 20200905234813
**********************
Transcript started, output file is ./logs/h264nvenc_boolean_200808.avi.log
DEBUG Invoke-Process
File: ffmpeg
Arg: -y -nostats -analyzeduration 30M -probesize 100M -fflags +discardcorrupt -i 200808.avi -an -c:v h264_nvenc -preset:v p7 -profile:v high -rc:v constqp -rc-lookahead 1 -spatial-aq 0 -temporal-aq 1 -2pass 0 -init_qpI 22 -init_qpP 22 -init_qpB 26 -weighted_pred 0 -coder cabac -b_ref_mode 2 -dpb_size 4 -multipass 0 -g 60 -bf 3 -pix_fmt yuv420p -color_range tv -color_primaries bt709 -color_trc bt709 -colorspace bt709 -movflags +faststart output.mp4
ArgList:

configuration:  --cc='ccache gcc' --cxx='ccache g++' --disable-autodetect --enable-amf --enable-bzlib --enable-cuda --enable-cuvid --enable-d3d11va --enable-dxva2 --enable-iconv --enable-lzma --enable-nvenc --enable-zlib --enable-sdl2 --enable-ffnvcodec --enable-nvdec --enable-cuda-llvm --enable-libmp3lame --enable-libopus --enable-libvorbis --enable-libvpx --enable-libx264 --enable-libx265 --enable-libdav1d --enable-libaom --disable-debug --enable-fontconfig --enable-libass --enable-libbluray --enable-libfreetype --enable-libmfx --enable-libmysofa --enable-libopencore-amrnb --enable-libopencore-amrwb --enable-libopenjpeg --enable-libsnappy --enable-libsoxr --enable-libspeex --enable-libtheora --enable-libtwolame --enable-libvidstab --enable-libvo-amrwbenc --enable-libwavpack --enable-libwebp --enable-libxml2 --enable-libzimg --enable-libshine --enable-gpl --enable-avisynth --enable-libxvid --enable-libopenmpt --enable-version3 --enable-librav1e --enable-libsrt --enable-libgsm --enable-libvmaf --enable-chromaprint --enable-decklink --enable-frei0r --enable-libbs2b --enable-libcaca --enable-libcdio --enable-libfdk-aac --enable-libflite --enable-libfribidi --enable-libgme --enable-libilbc --enable-libsvthevc --enable-libsvtav1 --enable-libsvtvp9 --enable-libkvazaar --enable-libmodplug --enable-librtmp --enable-librubberband --enable-libtesseract --enable-libxavs --enable-libzmq --enable-libzvbi --enable-openal --enable-libcodec2 --enable-ladspa --enable-libglslang --enable-vulkan --enable-opencl --enable-opengl --enable-libnpp --enable-libopenh264 --enable-openssl --extra-cflags=-fopenmp --extra-libs=-lgomp --extra-cflags=-DLIBTWOLAME_STATIC --extra-libs=-lstdc++ --extra-cflags=-DCACA_STATIC --extra-cflags=-DMODPLUG_STATIC --extra-cflags=-DCHROMAPRINT_NODLL --extra-libs=-lstdc++ --extra-cflags=-DZMQ_STATIC --extra-libs=-lpsapi --extra-cflags=-DLIBXML_STATIC --extra-libs=-liconv --disable-w32threads --extra-cflags=-DKVZ_STATIC_LIB --enable-nonfree --extra-cflags='-IC:/PROGRA~1/NVIDIA~2/CUDA/v11.0/include' --extra-ldflags='-LC:/PROGRA~1/NVIDIA~2/CUDA/v11.0/lib/x64' --extra-cflags=-DAL_LIBTYPE_STATIC --extra-cflags='-IC:/bin/media-autobuild_suite-master/local64/include/AL'
  built with gcc 10.2.0 (Rev1, Built by MSYS2 project)
  libavdevice    58. 11.101 / 58. 11.101
  libpostproc    55.  8.100 / 55.  8.100
ffmpeg version N-98966-g7a89f382a3-g0271098e6c+4 Copyright (c) 2000-2020 the FFmpeg developers
  libavutil      56. 58.100 / 56. 58.100
  libavfilter     7. 87.100 /  7. 87.100
  libavcodec     58.101.101 / 58.101.101
  libavformat    58. 51.101 / 58. 51.101
  libswscale      5.  8.100 /  5.  8.100
  libswresample   3.  8.100 /  3.  8.100
Input #0, avi, from '200808.avi':
  Metadata:
    encoder         : Lavf58.49.100
  Duration: 00:02:01.05, start: 0.000000, bitrate: 745549 kb/s
    Stream #0:0: Video: rawvideo (I420 / 0x30323449), yuv420p, 1920x1080, 745750 kb/s, SAR 1:1 DAR 16:9, 29.97 fps, 29.97 tbr, 29.97 tbn, 29.97 tbc
Stream mapping:
  Stream #0:0 -> #0:0 (rawvideo (native) -> h264 (h264_nvenc))
Press [q] to stop, [?] for help
Output #0, mp4, to 'output.mp4':
    encoder         : Lavf58.51.101
    Stream #0:0: Video: h264 (h264_nvenc) (High) (avc1 / 0x31637661), yuv420p(tv, bt709), 1920x1080 [SAR 1:1 DAR 16:9], q=-1--1, 2000 kb/s, 29.97 fps, 30k tbn, 29.97 tbc
  Metadata:
      encoder         : Lavc58.101.101 h264_nvenc
    Metadata:
    Side data:
      cpb: bitrate max/min/avg: 0/0/2000000 buffer size: 4000000 vbv_delay: N/A
[mp4 @ 0000018f70877c00] Starting second pass: moving the moov atom to the beginning of the file
frame= 3628 fps=138 q=21.0 Lsize=  145898kB time=00:02:00.92 bitrate=9884.1kbits/s dup=1 drop=0 speed= 4.6x    
video:145853kB audio:0kB subtitle:0kB other streams:0kB global headers:0kB muxing overhead: 0.030993%
DEBUG ExitCode: 0
DEBUG Invoke-Process
File: ffmpeg
Arg: -y -nostats -i output.mp4 -i 200808.avi -filter_complex libvmaf=vmaf_v0.6.1.pkl -an -f null -
ArgList:

ffmpeg version N-98966-g7a89f382a3-g0271098e6c+4 Copyright (c) 2000-2020 the FFmpeg developers
  built with gcc 10.2.0 (Rev1, Built by MSYS2 project)
  configuration:  --cc='ccache gcc' --cxx='ccache g++' --disable-autodetect --enable-amf --enable-bzlib --enable-cuda --enable-cuvid --enable-d3d11va --enable-dxva2 --enable-iconv --enable-lzma --enable-nvenc --enable-zlib --enable-sdl2 --enable-ffnvcodec --enable-nvdec --enable-cuda-llvm --enable-libmp3lame --enable-libopus --enable-libvorbis --enable-libvpx --enable-libx264 --enable-libx265 --enable-libdav1d --enable-libaom --disable-debug --enable-fontconfig --enable-libass --enable-libbluray --enable-libfreetype --enable-libmfx --enable-libmysofa --enable-libopencore-amrnb --enable-libopencore-amrwb --enable-libopenjpeg --enable-libsnappy --enable-libsoxr --enable-libspeex --enable-libtheora --enable-libtwolame --enable-libvidstab --enable-libvo-amrwbenc --enable-libwavpack --enable-libwebp --enable-libxml2 --enable-libzimg --enable-libshine --enable-gpl --enable-avisynth --enable-libxvid --enable-libopenmpt --enable-version3 --enable-librav1e --enable-libsrt --enable-libgsm --enable-libvmaf --enable-chromaprint --enable-decklink --enable-frei0r --enable-libbs2b --enable-libcaca --enable-libcdio --enable-libfdk-aac --enable-libflite --enable-libfribidi --enable-libgme --enable-libilbc --enable-libsvthevc --enable-libsvtav1 --enable-libsvtvp9 --enable-libkvazaar --enable-libmodplug --enable-librtmp --enable-librubberband --enable-libtesseract --enable-libxavs --enable-libzmq --enable-libzvbi --enable-openal --enable-libcodec2 --enable-ladspa --enable-libglslang --enable-vulkan --enable-opencl --enable-opengl --enable-libnpp --enable-libopenh264 --enable-openssl --extra-cflags=-fopenmp --extra-libs=-lgomp --extra-cflags=-DLIBTWOLAME_STATIC --extra-libs=-lstdc++ --extra-cflags=-DCACA_STATIC --extra-cflags=-DMODPLUG_STATIC --extra-cflags=-DCHROMAPRINT_NODLL --extra-libs=-lstdc++ --extra-cflags=-DZMQ_STATIC --extra-libs=-lpsapi --extra-cflags=-DLIBXML_STATIC --extra-libs=-liconv --disable-w32threads --extra-cflags=-DKVZ_STATIC_LIB --enable-nonfree --extra-cflags='-IC:/PROGRA~1/NVIDIA~2/CUDA/v11.0/include' --extra-ldflags='-LC:/PROGRA~1/NVIDIA~2/CUDA/v11.0/lib/x64' --extra-cflags=-DAL_LIBTYPE_STATIC --extra-cflags='-IC:/bin/media-autobuild_suite-master/local64/include/AL'
  libavcodec     58.101.101 / 58.101.101
  libavformat    58. 51.101 / 58. 51.101
  libavutil      56. 58.100 / 56. 58.100
  libavfilter     7. 87.100 /  7. 87.100
  libswscale      5.  8.100 /  5.  8.100
  libswresample   3.  8.100 /  3.  8.100
  libpostproc    55.  8.100 / 55.  8.100
  libavdevice    58. 11.101 / 58. 11.101
Input #0, mov,mp4,m4a,3gp,3g2,mj2, from 'output.mp4':
  Metadata:
    minor_version   : 512
    major_brand     : isom
    encoder         : Lavf58.51.101
    compatible_brands: isomiso2avc1mp41
    Stream #0:0(und): Video: h264 (High) (avc1 / 0x31637661), yuv420p(tv, bt709), 1920x1080 [SAR 1:1 DAR 16:9], 9870 kb/s, 29.97 fps, 29.97 tbr, 30k tbn, 59.94 tbc (default)
  Duration: 00:02:01.06, start: 0.000000, bitrate: 9873 kb/s
    Metadata:
      handler_name    : VideoHandler
Input #1, avi, from '200808.avi':
    encoder         : Lavf58.49.100
  Duration: 00:02:01.05, start: 0.000000, bitrate: 745549 kb/s
    Stream #1:0: Video: rawvideo (I420 / 0x30323449), yuv420p, 1920x1080, 745750 kb/s, SAR 1:1 DAR 16:9, 29.97 fps, 29.97 tbr, 29.97 tbn, 29.97 tbc
  Metadata:
Stream mapping:
  Stream #0:0 (h264) -> libvmaf:main
  Stream #1:0 (rawvideo) -> libvmaf:reference
  libvmaf -> Stream #0:0 (wrapped_avframe)
Press [q] to stop, [?] for help
Output #0, null, to 'pipe:':
  Metadata:
    Stream #0:0: Video: wrapped_avframe, yuv420p, 1920x1080 [SAR 1:1 DAR 16:9], q=2-31, 200 kb/s, 29.97 fps, 29.97 tbn, 29.97 tbc (default)
      encoder         : Lavc58.101.101 wrapped_avframe
    Metadata:
    major_brand     : isom
    encoder         : Lavf58.51.101
    compatible_brands: isomiso2avc1mp41
    minor_version   : 512
frame= 3628 fps= 27 q=-0.0 Lsize=N/A time=00:02:01.05 bitrate=N/A speed=0.884x    
video:1899kB audio:0kB subtitle:0kB other streams:0kB global headers:0kB muxing overhead: unknown
[libvmaf @ 0000023fc66de340] VMAF score: 96.076929
DEBUG ExitCode: 0
142.48MB
DEBUG Invoke-Process
File: ffmpeg
Arg: -y -nostats -analyzeduration 30M -probesize 100M -fflags +discardcorrupt -i 200808.avi -an -c:v h264_nvenc -preset:v p7 -profile:v high -rc:v constqp -rc-lookahead 1 -spatial-aq 0 -temporal-aq 1 -2pass 1 -init_qpI 22 -init_qpP 22 -init_qpB 26 -weighted_pred 0 -coder cabac -b_ref_mode 2 -dpb_size 4 -multipass 0 -g 60 -bf 3 -pix_fmt yuv420p -color_range tv -color_primaries bt709 -color_trc bt709 -colorspace bt709 -movflags +faststart output.mp4
ArgList:

ffmpeg version N-98966-g7a89f382a3-g0271098e6c+4 Copyright (c) 2000-2020 the FFmpeg developers
  built with gcc 10.2.0 (Rev1, Built by MSYS2 project)
  configuration:  --cc='ccache gcc' --cxx='ccache g++' --disable-autodetect --enable-amf --enable-bzlib --enable-cuda --enable-cuvid --enable-d3d11va --enable-dxva2 --enable-iconv --enable-lzma --enable-nvenc --enable-zlib --enable-sdl2 --enable-ffnvcodec --enable-nvdec --enable-cuda-llvm --enable-libmp3lame --enable-libopus --enable-libvorbis --enable-libvpx --enable-libx264 --enable-libx265 --enable-libdav1d --enable-libaom --disable-debug --enable-fontconfig --enable-libass --enable-libbluray --enable-libfreetype --enable-libmfx --enable-libmysofa --enable-libopencore-amrnb --enable-libopencore-amrwb --enable-libopenjpeg --enable-libsnappy --enable-libsoxr --enable-libspeex --enable-libtheora --enable-libtwolame --enable-libvidstab --enable-libvo-amrwbenc --enable-libwavpack --enable-libwebp --enable-libxml2 --enable-libzimg --enable-libshine --enable-gpl --enable-avisynth --enable-libxvid --enable-libopenmpt --enable-version3 --enable-librav1e --enable-libsrt --enable-libgsm --enable-libvmaf --enable-chromaprint --enable-decklink --enable-frei0r --enable-libbs2b --enable-libcaca --enable-libcdio --enable-libfdk-aac --enable-libflite --enable-libfribidi --enable-libgme --enable-libilbc --enable-libsvthevc --enable-libsvtav1 --enable-libsvtvp9 --enable-libkvazaar --enable-libmodplug --enable-librtmp --enable-librubberband --enable-libtesseract --enable-libxavs --enable-libzmq --enable-libzvbi --enable-openal --enable-libcodec2 --enable-ladspa --enable-libglslang --enable-vulkan --enable-opencl --enable-opengl --enable-libnpp --enable-libopenh264 --enable-openssl --extra-cflags=-fopenmp --extra-libs=-lgomp --extra-cflags=-DLIBTWOLAME_STATIC --extra-libs=-lstdc++ --extra-cflags=-DCACA_STATIC --extra-cflags=-DMODPLUG_STATIC --extra-cflags=-DCHROMAPRINT_NODLL --extra-libs=-lstdc++ --extra-cflags=-DZMQ_STATIC --extra-libs=-lpsapi --extra-cflags=-DLIBXML_STATIC --extra-libs=-liconv --disable-w32threads --extra-cflags=-DKVZ_STATIC_LIB --enable-nonfree --extra-cflags='-IC:/PROGRA~1/NVIDIA~2/CUDA/v11.0/include' --extra-ldflags='-LC:/PROGRA~1/NVIDIA~2/CUDA/v11.0/lib/x64' --extra-cflags=-DAL_LIBTYPE_STATIC --extra-cflags='-IC:/bin/media-autobuild_suite-master/local64/include/AL'
  libavutil      56. 58.100 / 56. 58.100
  libavcodec     58.101.101 / 58.101.101
  libavformat    58. 51.101 / 58. 51.101
  libavfilter     7. 87.100 /  7. 87.100
  libswscale      5.  8.100 /  5.  8.100
  libavdevice    58. 11.101 / 58. 11.101
  libswresample   3.  8.100 /  3.  8.100
  libpostproc    55.  8.100 / 55.  8.100
Input #0, avi, from '200808.avi':
  Metadata:
    encoder         : Lavf58.49.100
  Duration: 00:02:01.05, start: 0.000000, bitrate: 745549 kb/s
    Stream #0:0: Video: rawvideo (I420 / 0x30323449), yuv420p, 1920x1080, 745750 kb/s, SAR 1:1 DAR 16:9, 29.97 fps, 29.97 tbr, 29.97 tbn, 29.97 tbc
Stream mapping:
  Stream #0:0 -> #0:0 (rawvideo (native) -> h264 (h264_nvenc))
Press [q] to stop, [?] for help
Output #0, mp4, to 'output.mp4':
  Metadata:
    Stream #0:0: Video: h264 (h264_nvenc) (High) (avc1 / 0x31637661), yuv420p(tv, bt709), 1920x1080 [SAR 1:1 DAR 16:9], q=-1--1, 2000 kb/s, 29.97 fps, 30k tbn, 29.97 tbc
    Metadata:
    encoder         : Lavf58.51.101
      encoder         : Lavc58.101.101 h264_nvenc
    Side data:
      cpb: bitrate max/min/avg: 0/0/2000000 buffer size: 4000000 vbv_delay: N/A
[mp4 @ 00000258f18a7c00] Starting second pass: moving the moov atom to the beginning of the file
frame= 3628 fps=138 q=21.0 Lsize=  145898kB time=00:02:00.92 bitrate=9884.1kbits/s dup=1 drop=0 speed=4.61x    
video:145853kB audio:0kB subtitle:0kB other streams:0kB global headers:0kB muxing overhead: 0.030993%
DEBUG ExitCode: 0
DEBUG Invoke-Process
File: ffmpeg
Arg: -y -nostats -i output.mp4 -i 200808.avi -filter_complex libvmaf=vmaf_v0.6.1.pkl -an -f null -
ArgList:

ffmpeg version N-98966-g7a89f382a3-g0271098e6c+4 Copyright (c) 2000-2020 the FFmpeg developers
  built with gcc 10.2.0 (Rev1, Built by MSYS2 project)
  configuration:  --cc='ccache gcc' --cxx='ccache g++' --disable-autodetect --enable-amf --enable-bzlib --enable-cuda --enable-cuvid --enable-d3d11va --enable-dxva2 --enable-iconv --enable-lzma --enable-nvenc --enable-zlib --enable-sdl2 --enable-ffnvcodec --enable-nvdec --enable-cuda-llvm --enable-libmp3lame --enable-libopus --enable-libvorbis --enable-libvpx --enable-libx264 --enable-libx265 --enable-libdav1d --enable-libaom --disable-debug --enable-fontconfig --enable-libass --enable-libbluray --enable-libfreetype --enable-libmfx --enable-libmysofa --enable-libopencore-amrnb --enable-libopencore-amrwb --enable-libopenjpeg --enable-libsnappy --enable-libsoxr --enable-libspeex --enable-libtheora --enable-libtwolame --enable-libvidstab --enable-libvo-amrwbenc --enable-libwavpack --enable-libwebp --enable-libxml2 --enable-libzimg --enable-libshine --enable-gpl --enable-avisynth --enable-libxvid --enable-libopenmpt --enable-version3 --enable-librav1e --enable-libsrt --enable-libgsm --enable-libvmaf --enable-chromaprint --enable-decklink --enable-frei0r --enable-libbs2b --enable-libcaca --enable-libcdio --enable-libfdk-aac --enable-libflite --enable-libfribidi --enable-libgme --enable-libilbc --enable-libsvthevc --enable-libsvtav1 --enable-libsvtvp9 --enable-libkvazaar --enable-libmodplug --enable-librtmp --enable-librubberband --enable-libtesseract --enable-libxavs --enable-libzmq --enable-libzvbi --enable-openal --enable-libcodec2 --enable-ladspa --enable-libglslang --enable-vulkan --enable-opencl --enable-opengl --enable-libnpp --enable-libopenh264 --enable-openssl --extra-cflags=-fopenmp --extra-libs=-lgomp --extra-cflags=-DLIBTWOLAME_STATIC --extra-libs=-lstdc++ --extra-cflags=-DCACA_STATIC --extra-cflags=-DMODPLUG_STATIC --extra-cflags=-DCHROMAPRINT_NODLL --extra-libs=-lstdc++ --extra-cflags=-DZMQ_STATIC --extra-libs=-lpsapi --extra-cflags=-DLIBXML_STATIC --extra-libs=-liconv --disable-w32threads --extra-cflags=-DKVZ_STATIC_LIB --enable-nonfree --extra-cflags='-IC:/PROGRA~1/NVIDIA~2/CUDA/v11.0/include' --extra-ldflags='-LC:/PROGRA~1/NVIDIA~2/CUDA/v11.0/lib/x64' --extra-cflags=-DAL_LIBTYPE_STATIC --extra-cflags='-IC:/bin/media-autobuild_suite-master/local64/include/AL'
  libavcodec     58.101.101 / 58.101.101
  libavformat    58. 51.101 / 58. 51.101
  libavdevice    58. 11.101 / 58. 11.101
  libavfilter     7. 87.100 /  7. 87.100
  libswscale      5.  8.100 /  5.  8.100
  libswresample   3.  8.100 /  3.  8.100
  libpostproc    55.  8.100 / 55.  8.100
  libavutil      56. 58.100 / 56. 58.100
Input #0, mov,mp4,m4a,3gp,3g2,mj2, from 'output.mp4':
  Metadata:
    major_brand     : isom
    encoder         : Lavf58.51.101
    minor_version   : 512
    compatible_brands: isomiso2avc1mp41
  Duration: 00:02:01.06, start: 0.000000, bitrate: 9873 kb/s
    Stream #0:0(und): Video: h264 (High) (avc1 / 0x31637661), yuv420p(tv, bt709), 1920x1080 [SAR 1:1 DAR 16:9], 9870 kb/s, 29.97 fps, 29.97 tbr, 30k tbn, 59.94 tbc (default)
      handler_name    : VideoHandler
    Metadata:
Input #1, avi, from '200808.avi':
  Metadata:
    encoder         : Lavf58.49.100
  Duration: 00:02:01.05, start: 0.000000, bitrate: 745549 kb/s
    Stream #1:0: Video: rawvideo (I420 / 0x30323449), yuv420p, 1920x1080, 745750 kb/s, SAR 1:1 DAR 16:9, 29.97 fps, 29.97 tbr, 29.97 tbn, 29.97 tbc
Stream mapping:
  Stream #0:0 (h264) -> libvmaf:main
  Stream #1:0 (rawvideo) -> libvmaf:reference
  libvmaf -> Stream #0:0 (wrapped_avframe)
Press [q] to stop, [?] for help
Output #0, null, to 'pipe:':
  Metadata:
    major_brand     : isom
    compatible_brands: isomiso2avc1mp41
    Stream #0:0: Video: wrapped_avframe, yuv420p, 1920x1080 [SAR 1:1 DAR 16:9], q=2-31, 200 kb/s, 29.97 fps, 29.97 tbn, 29.97 tbc (default)
    Metadata:
      encoder         : Lavc58.101.101 wrapped_avframe
    encoder         : Lavf58.51.101
    minor_version   : 512
frame= 3628 fps= 27 q=-0.0 Lsize=N/A time=00:02:01.05 bitrate=N/A speed=0.891x    
video:1899kB audio:0kB subtitle:0kB other streams:0kB global headers:0kB muxing overhead: unknown
[libvmaf @ 0000027bea2fea40] VMAF score: 96.076929
DEBUG ExitCode: 0
142.48MB
DEBUG Invoke-Process
File: ffmpeg
Arg: -y -nostats -analyzeduration 30M -probesize 100M -fflags +discardcorrupt -i 200808.avi -an -c:v h264_nvenc -preset:v p7 -profile:v high -rc:v constqp -rc-lookahead 1 -spatial-aq 0 -temporal-aq 1 -no-scenecut 1 -init_qpI 22 -init_qpP 22 -init_qpB 26 -weighted_pred 0 -coder cabac -b_ref_mode 2 -dpb_size 4 -multipass 0 -g 60 -bf 3 -pix_fmt yuv420p -color_range tv -color_primaries bt709 -color_trc bt709 -colorspace bt709 -movflags +faststart output.mp4
ArgList:

ffmpeg version N-98966-g7a89f382a3-g0271098e6c+4 Copyright (c) 2000-2020 the FFmpeg developers
  built with gcc 10.2.0 (Rev1, Built by MSYS2 project)
  configuration:  --cc='ccache gcc' --cxx='ccache g++' --disable-autodetect --enable-amf --enable-bzlib --enable-cuda --enable-cuvid --enable-d3d11va --enable-dxva2 --enable-iconv --enable-lzma --enable-nvenc --enable-zlib --enable-sdl2 --enable-ffnvcodec --enable-nvdec --enable-cuda-llvm --enable-libmp3lame --enable-libopus --enable-libvorbis --enable-libvpx --enable-libx264 --enable-libx265 --enable-libdav1d --enable-libaom --disable-debug --enable-fontconfig --enable-libass --enable-libbluray --enable-libfreetype --enable-libmfx --enable-libmysofa --enable-libopencore-amrnb --enable-libopencore-amrwb --enable-libopenjpeg --enable-libsnappy --enable-libsoxr --enable-libspeex --enable-libtheora --enable-libtwolame --enable-libvidstab --enable-libvo-amrwbenc --enable-libwavpack --enable-libwebp --enable-libxml2 --enable-libzimg --enable-libshine --enable-gpl --enable-avisynth --enable-libxvid --enable-libopenmpt --enable-version3 --enable-librav1e --enable-libsrt --enable-libgsm --enable-libvmaf --enable-chromaprint --enable-decklink --enable-frei0r --enable-libbs2b --enable-libcaca --enable-libcdio --enable-libfdk-aac --enable-libflite --enable-libfribidi --enable-libgme --enable-libilbc --enable-libsvthevc --enable-libsvtav1 --enable-libsvtvp9 --enable-libkvazaar --enable-libmodplug --enable-librtmp --enable-librubberband --enable-libtesseract --enable-libxavs --enable-libzmq --enable-libzvbi --enable-openal --enable-libcodec2 --enable-ladspa --enable-libglslang --enable-vulkan --enable-opencl --enable-opengl --enable-libnpp --enable-libopenh264 --enable-openssl --extra-cflags=-fopenmp --extra-libs=-lgomp --extra-cflags=-DLIBTWOLAME_STATIC --extra-libs=-lstdc++ --extra-cflags=-DCACA_STATIC --extra-cflags=-DMODPLUG_STATIC --extra-cflags=-DCHROMAPRINT_NODLL --extra-libs=-lstdc++ --extra-cflags=-DZMQ_STATIC --extra-libs=-lpsapi --extra-cflags=-DLIBXML_STATIC --extra-libs=-liconv --disable-w32threads --extra-cflags=-DKVZ_STATIC_LIB --enable-nonfree --extra-cflags='-IC:/PROGRA~1/NVIDIA~2/CUDA/v11.0/include' --extra-ldflags='-LC:/PROGRA~1/NVIDIA~2/CUDA/v11.0/lib/x64' --extra-cflags=-DAL_LIBTYPE_STATIC --extra-cflags='-IC:/bin/media-autobuild_suite-master/local64/include/AL'
  libavutil      56. 58.100 / 56. 58.100
  libavformat    58. 51.101 / 58. 51.101
  libavdevice    58. 11.101 / 58. 11.101
  libavcodec     58.101.101 / 58.101.101
  libavfilter     7. 87.100 /  7. 87.100
  libswscale      5.  8.100 /  5.  8.100
  libswresample   3.  8.100 /  3.  8.100
  libpostproc    55.  8.100 / 55.  8.100
Input #0, avi, from '200808.avi':
  Metadata:
    encoder         : Lavf58.49.100
  Duration: 00:02:01.05, start: 0.000000, bitrate: 745549 kb/s
    Stream #0:0: Video: rawvideo (I420 / 0x30323449), yuv420p, 1920x1080, 745750 kb/s, SAR 1:1 DAR 16:9, 29.97 fps, 29.97 tbr, 29.97 tbn, 29.97 tbc
Stream mapping:
  Stream #0:0 -> #0:0 (rawvideo (native) -> h264 (h264_nvenc))
Press [q] to stop, [?] for help
Output #0, mp4, to 'output.mp4':
  Metadata:
    Metadata:
      encoder         : Lavc58.101.101 h264_nvenc
    Side data:
      cpb: bitrate max/min/avg: 0/0/2000000 buffer size: 4000000 vbv_delay: N/A
    Stream #0:0: Video: h264 (h264_nvenc) (High) (avc1 / 0x31637661), yuv420p(tv, bt709), 1920x1080 [SAR 1:1 DAR 16:9], q=-1--1, 2000 kb/s, 29.97 fps, 30k tbn, 29.97 tbc
    encoder         : Lavf58.51.101
[mp4 @ 0000021dfa757c00] Starting second pass: moving the moov atom to the beginning of the file
video:147608kB audio:0kB subtitle:0kB other streams:0kB global headers:0kB muxing overhead: 0.030622%
frame= 3628 fps=135 q=25.0 Lsize=  147653kB time=00:02:00.92 bitrate=10003.0kbits/s dup=1 drop=0 speed=4.51x
DEBUG ExitCode: 0
DEBUG Invoke-Process
File: ffmpeg
Arg: -y -nostats -i output.mp4 -i 200808.avi -filter_complex libvmaf=vmaf_v0.6.1.pkl -an -f null -
ArgList:

built with gcc 10.2.0 (Rev1, Built by MSYS2 project)
ffmpeg version N-98966-g7a89f382a3-g0271098e6c+4 Copyright (c) 2000-2020 the FFmpeg developers
  configuration:  --cc='ccache gcc' --cxx='ccache g++' --disable-autodetect --enable-amf --enable-bzlib --enable-cuda --enable-cuvid --enable-d3d11va --enable-dxva2 --enable-iconv --enable-lzma --enable-nvenc --enable-zlib --enable-sdl2 --enable-ffnvcodec --enable-nvdec --enable-cuda-llvm --enable-libmp3lame --enable-libopus --enable-libvorbis --enable-libvpx --enable-libx264 --enable-libx265 --enable-libdav1d --enable-libaom --disable-debug --enable-fontconfig --enable-libass --enable-libbluray --enable-libfreetype --enable-libmfx --enable-libmysofa --enable-libopencore-amrnb --enable-libopencore-amrwb --enable-libopenjpeg --enable-libsnappy --enable-libsoxr --enable-libspeex --enable-libtheora --enable-libtwolame --enable-libvidstab --enable-libvo-amrwbenc --enable-libwavpack --enable-libwebp --enable-libxml2 --enable-libzimg --enable-libshine --enable-gpl --enable-avisynth --enable-libxvid --enable-libopenmpt --enable-version3 --enable-librav1e --enable-libsrt --enable-libgsm --enable-libvmaf --enable-chromaprint --enable-decklink --enable-frei0r --enable-libbs2b --enable-libcaca --enable-libcdio --enable-libfdk-aac --enable-libflite --enable-libfribidi --enable-libgme --enable-libilbc --enable-libsvthevc --enable-libsvtav1 --enable-libsvtvp9 --enable-libkvazaar --enable-libmodplug --enable-librtmp --enable-librubberband --enable-libtesseract --enable-libxavs --enable-libzmq --enable-libzvbi --enable-openal --enable-libcodec2 --enable-ladspa --enable-libglslang --enable-vulkan --enable-opencl --enable-opengl --enable-libnpp --enable-libopenh264 --enable-openssl --extra-cflags=-fopenmp --extra-libs=-lgomp --extra-cflags=-DLIBTWOLAME_STATIC --extra-libs=-lstdc++ --extra-cflags=-DCACA_STATIC --extra-cflags=-DMODPLUG_STATIC --extra-cflags=-DCHROMAPRINT_NODLL --extra-libs=-lstdc++ --extra-cflags=-DZMQ_STATIC --extra-libs=-lpsapi --extra-cflags=-DLIBXML_STATIC --extra-libs=-liconv --disable-w32threads --extra-cflags=-DKVZ_STATIC_LIB --enable-nonfree --extra-cflags='-IC:/PROGRA~1/NVIDIA~2/CUDA/v11.0/include' --extra-ldflags='-LC:/PROGRA~1/NVIDIA~2/CUDA/v11.0/lib/x64' --extra-cflags=-DAL_LIBTYPE_STATIC --extra-cflags='-IC:/bin/media-autobuild_suite-master/local64/include/AL'
  libavutil      56. 58.100 / 56. 58.100
  libavcodec     58.101.101 / 58.101.101
  libavformat    58. 51.101 / 58. 51.101
  libavdevice    58. 11.101 / 58. 11.101
  libavfilter     7. 87.100 /  7. 87.100
  libswresample   3.  8.100 /  3.  8.100
  libpostproc    55.  8.100 / 55.  8.100
  libswscale      5.  8.100 /  5.  8.100
Input #0, mov,mp4,m4a,3gp,3g2,mj2, from 'output.mp4':
  Metadata:
    major_brand     : isom
    minor_version   : 512
    compatible_brands: isomiso2avc1mp41
    encoder         : Lavf58.51.101
  Duration: 00:02:01.06, start: 0.000000, bitrate: 9991 kb/s
    Metadata:
    Stream #0:0(und): Video: h264 (High) (avc1 / 0x31637661), yuv420p(tv, bt709), 1920x1080 [SAR 1:1 DAR 16:9], 9988 kb/s, 29.97 fps, 29.97 tbr, 30k tbn, 59.94 tbc (default)
      handler_name    : VideoHandler
Input #1, avi, from '200808.avi':
  Metadata:
  Duration: 00:02:01.05, start: 0.000000, bitrate: 745549 kb/s
    encoder         : Lavf58.49.100
    Stream #1:0: Video: rawvideo (I420 / 0x30323449), yuv420p, 1920x1080, 745750 kb/s, SAR 1:1 DAR 16:9, 29.97 fps, 29.97 tbr, 29.97 tbn, 29.97 tbc
Stream mapping:
  Stream #0:0 (h264) -> libvmaf:main
  libvmaf -> Stream #0:0 (wrapped_avframe)
  Stream #1:0 (rawvideo) -> libvmaf:reference
Press [q] to stop, [?] for help
Output #0, null, to 'pipe:':
  Metadata:
    major_brand     : isom
    compatible_brands: isomiso2avc1mp41
    encoder         : Lavf58.51.101
    Stream #0:0: Video: wrapped_avframe, yuv420p, 1920x1080 [SAR 1:1 DAR 16:9], q=2-31, 200 kb/s, 29.97 fps, 29.97 tbn, 29.97 tbc (default)
    Metadata:
      encoder         : Lavc58.101.101 wrapped_avframe
    minor_version   : 512
frame= 3628 fps= 26 q=-0.0 Lsize=N/A time=00:02:01.05 bitrate=N/A speed=0.878x    
video:1899kB audio:0kB subtitle:0kB other streams:0kB global headers:0kB muxing overhead: unknown
[libvmaf @ 0000023268ff6e80] VMAF score: 96.091297
DEBUG ExitCode: 0
144.19MB
DEBUG Invoke-Process
File: ffmpeg
Arg: -y -nostats -analyzeduration 30M -probesize 100M -fflags +discardcorrupt -i 200808.avi -an -c:v h264_nvenc -preset:v p7 -profile:v high -rc:v constqp -rc-lookahead 1 -spatial-aq 0 -temporal-aq 1 -forced-idr 1 -init_qpI 22 -init_qpP 22 -init_qpB 26 -weighted_pred 0 -coder cabac -b_ref_mode 2 -dpb_size 4 -multipass 0 -g 60 -bf 3 -pix_fmt yuv420p -color_range tv -color_primaries bt709 -color_trc bt709 -colorspace bt709 -movflags +faststart output.mp4
ArgList:

ffmpeg version N-98966-g7a89f382a3-g0271098e6c+4 Copyright (c) 2000-2020 the FFmpeg developers
  built with gcc 10.2.0 (Rev1, Built by MSYS2 project)
  configuration:  --cc='ccache gcc' --cxx='ccache g++' --disable-autodetect --enable-amf --enable-bzlib --enable-cuda --enable-cuvid --enable-d3d11va --enable-dxva2 --enable-iconv --enable-lzma --enable-nvenc --enable-zlib --enable-sdl2 --enable-ffnvcodec --enable-nvdec --enable-cuda-llvm --enable-libmp3lame --enable-libopus --enable-libvorbis --enable-libvpx --enable-libx264 --enable-libx265 --enable-libdav1d --enable-libaom --disable-debug --enable-fontconfig --enable-libass --enable-libbluray --enable-libfreetype --enable-libmfx --enable-libmysofa --enable-libopencore-amrnb --enable-libopencore-amrwb --enable-libopenjpeg --enable-libsnappy --enable-libsoxr --enable-libspeex --enable-libtheora --enable-libtwolame --enable-libvidstab --enable-libvo-amrwbenc --enable-libwavpack --enable-libwebp --enable-libxml2 --enable-libzimg --enable-libshine --enable-gpl --enable-avisynth --enable-libxvid --enable-libopenmpt --enable-version3 --enable-librav1e --enable-libsrt --enable-libgsm --enable-libvmaf --enable-chromaprint --enable-decklink --enable-frei0r --enable-libbs2b --enable-libcaca --enable-libcdio --enable-libfdk-aac --enable-libflite --enable-libfribidi --enable-libgme --enable-libilbc --enable-libsvthevc --enable-libsvtav1 --enable-libsvtvp9 --enable-libkvazaar --enable-libmodplug --enable-librtmp --enable-librubberband --enable-libtesseract --enable-libxavs --enable-libzmq --enable-libzvbi --enable-openal --enable-libcodec2 --enable-ladspa --enable-libglslang --enable-vulkan --enable-opencl --enable-opengl --enable-libnpp --enable-libopenh264 --enable-openssl --extra-cflags=-fopenmp --extra-libs=-lgomp --extra-cflags=-DLIBTWOLAME_STATIC --extra-libs=-lstdc++ --extra-cflags=-DCACA_STATIC --extra-cflags=-DMODPLUG_STATIC --extra-cflags=-DCHROMAPRINT_NODLL --extra-libs=-lstdc++ --extra-cflags=-DZMQ_STATIC --extra-libs=-lpsapi --extra-cflags=-DLIBXML_STATIC --extra-libs=-liconv --disable-w32threads --extra-cflags=-DKVZ_STATIC_LIB --enable-nonfree --extra-cflags='-IC:/PROGRA~1/NVIDIA~2/CUDA/v11.0/include' --extra-ldflags='-LC:/PROGRA~1/NVIDIA~2/CUDA/v11.0/lib/x64' --extra-cflags=-DAL_LIBTYPE_STATIC --extra-cflags='-IC:/bin/media-autobuild_suite-master/local64/include/AL'
  libavutil      56. 58.100 / 56. 58.100
  libavcodec     58.101.101 / 58.101.101
  libavdevice    58. 11.101 / 58. 11.101
  libavfilter     7. 87.100 /  7. 87.100
  libswscale      5.  8.100 /  5.  8.100
  libswresample   3.  8.100 /  3.  8.100
  libpostproc    55.  8.100 / 55.  8.100
  libavformat    58. 51.101 / 58. 51.101
Input #0, avi, from '200808.avi':
  Metadata:
  Duration: 00:02:01.05, start: 0.000000, bitrate: 745549 kb/s
    Stream #0:0: Video: rawvideo (I420 / 0x30323449), yuv420p, 1920x1080, 745750 kb/s, SAR 1:1 DAR 16:9, 29.97 fps, 29.97 tbr, 29.97 tbn, 29.97 tbc
    encoder         : Lavf58.49.100
Stream mapping:
Press [q] to stop, [?] for help
  Stream #0:0 -> #0:0 (rawvideo (native) -> h264 (h264_nvenc))
Output #0, mp4, to 'output.mp4':
  Metadata:
      encoder         : Lavc58.101.101 h264_nvenc
    Side data:
    Metadata:
      cpb: bitrate max/min/avg: 0/0/2000000 buffer size: 4000000 vbv_delay: N/A
    Stream #0:0: Video: h264 (h264_nvenc) (High) (avc1 / 0x31637661), yuv420p(tv, bt709), 1920x1080 [SAR 1:1 DAR 16:9], q=-1--1, 2000 kb/s, 29.97 fps, 30k tbn, 29.97 tbc
    encoder         : Lavf58.51.101
[mp4 @ 000002887d6b7c00] Starting second pass: moving the moov atom to the beginning of the file
frame= 3628 fps=138 q=21.0 Lsize=  145898kB time=00:02:00.92 bitrate=9884.1kbits/s dup=1 drop=0 speed= 4.6x    
video:145853kB audio:0kB subtitle:0kB other streams:0kB global headers:0kB muxing overhead: 0.030993%
DEBUG ExitCode: 0
DEBUG Invoke-Process
File: ffmpeg
Arg: -y -nostats -i output.mp4 -i 200808.avi -filter_complex libvmaf=vmaf_v0.6.1.pkl -an -f null -
ArgList:

built with gcc 10.2.0 (Rev1, Built by MSYS2 project)
ffmpeg version N-98966-g7a89f382a3-g0271098e6c+4 Copyright (c) 2000-2020 the FFmpeg developers
  libavutil      56. 58.100 / 56. 58.100
  libavcodec     58.101.101 / 58.101.101
  libavformat    58. 51.101 / 58. 51.101
  libavdevice    58. 11.101 / 58. 11.101
  libavfilter     7. 87.100 /  7. 87.100
  libswscale      5.  8.100 /  5.  8.100
  libswresample   3.  8.100 /  3.  8.100
  libpostproc    55.  8.100 / 55.  8.100
  configuration:  --cc='ccache gcc' --cxx='ccache g++' --disable-autodetect --enable-amf --enable-bzlib --enable-cuda --enable-cuvid --enable-d3d11va --enable-dxva2 --enable-iconv --enable-lzma --enable-nvenc --enable-zlib --enable-sdl2 --enable-ffnvcodec --enable-nvdec --enable-cuda-llvm --enable-libmp3lame --enable-libopus --enable-libvorbis --enable-libvpx --enable-libx264 --enable-libx265 --enable-libdav1d --enable-libaom --disable-debug --enable-fontconfig --enable-libass --enable-libbluray --enable-libfreetype --enable-libmfx --enable-libmysofa --enable-libopencore-amrnb --enable-libopencore-amrwb --enable-libopenjpeg --enable-libsnappy --enable-libsoxr --enable-libspeex --enable-libtheora --enable-libtwolame --enable-libvidstab --enable-libvo-amrwbenc --enable-libwavpack --enable-libwebp --enable-libxml2 --enable-libzimg --enable-libshine --enable-gpl --enable-avisynth --enable-libxvid --enable-libopenmpt --enable-version3 --enable-librav1e --enable-libsrt --enable-libgsm --enable-libvmaf --enable-chromaprint --enable-decklink --enable-frei0r --enable-libbs2b --enable-libcaca --enable-libcdio --enable-libfdk-aac --enable-libflite --enable-libfribidi --enable-libgme --enable-libilbc --enable-libsvthevc --enable-libsvtav1 --enable-libsvtvp9 --enable-libkvazaar --enable-libmodplug --enable-librtmp --enable-librubberband --enable-libtesseract --enable-libxavs --enable-libzmq --enable-libzvbi --enable-openal --enable-libcodec2 --enable-ladspa --enable-libglslang --enable-vulkan --enable-opencl --enable-opengl --enable-libnpp --enable-libopenh264 --enable-openssl --extra-cflags=-fopenmp --extra-libs=-lgomp --extra-cflags=-DLIBTWOLAME_STATIC --extra-libs=-lstdc++ --extra-cflags=-DCACA_STATIC --extra-cflags=-DMODPLUG_STATIC --extra-cflags=-DCHROMAPRINT_NODLL --extra-libs=-lstdc++ --extra-cflags=-DZMQ_STATIC --extra-libs=-lpsapi --extra-cflags=-DLIBXML_STATIC --extra-libs=-liconv --disable-w32threads --extra-cflags=-DKVZ_STATIC_LIB --enable-nonfree --extra-cflags='-IC:/PROGRA~1/NVIDIA~2/CUDA/v11.0/include' --extra-ldflags='-LC:/PROGRA~1/NVIDIA~2/CUDA/v11.0/lib/x64' --extra-cflags=-DAL_LIBTYPE_STATIC --extra-cflags='-IC:/bin/media-autobuild_suite-master/local64/include/AL'
Input #0, mov,mp4,m4a,3gp,3g2,mj2, from 'output.mp4':
  Metadata:
    minor_version   : 512
    compatible_brands: isomiso2avc1mp41
    encoder         : Lavf58.51.101
  Duration: 00:02:01.06, start: 0.000000, bitrate: 9873 kb/s
    major_brand     : isom
    Stream #0:0(und): Video: h264 (High) (avc1 / 0x31637661), yuv420p(tv, bt709), 1920x1080 [SAR 1:1 DAR 16:9], 9870 kb/s, 29.97 fps, 29.97 tbr, 30k tbn, 59.94 tbc (default)
      handler_name    : VideoHandler
    Metadata:
Input #1, avi, from '200808.avi':
  Metadata:
  Duration: 00:02:01.05, start: 0.000000, bitrate: 745549 kb/s
    encoder         : Lavf58.49.100
    Stream #1:0: Video: rawvideo (I420 / 0x30323449), yuv420p, 1920x1080, 745750 kb/s, SAR 1:1 DAR 16:9, 29.97 fps, 29.97 tbr, 29.97 tbn, 29.97 tbc
Stream mapping:
  Stream #0:0 (h264) -> libvmaf:main
  Stream #1:0 (rawvideo) -> libvmaf:reference
  libvmaf -> Stream #0:0 (wrapped_avframe)
Press [q] to stop, [?] for help
Output #0, null, to 'pipe:':
    major_brand     : isom
    compatible_brands: isomiso2avc1mp41
    encoder         : Lavf58.51.101
    Metadata:
    minor_version   : 512
      encoder         : Lavc58.101.101 wrapped_avframe
    Stream #0:0: Video: wrapped_avframe, yuv420p, 1920x1080 [SAR 1:1 DAR 16:9], q=2-31, 200 kb/s, 29.97 fps, 29.97 tbn, 29.97 tbc (default)
  Metadata:
frame= 3628 fps= 26 q=-0.0 Lsize=N/A time=00:02:01.05 bitrate=N/A speed=0.874x    
video:1899kB audio:0kB subtitle:0kB other streams:0kB global headers:0kB muxing overhead: unknown
[libvmaf @ 0000013a7f6b6b00] VMAF score: 96.076929
DEBUG ExitCode: 0
142.48MB
DEBUG Invoke-Process
File: ffmpeg
Arg: -y -nostats -analyzeduration 30M -probesize 100M -fflags +discardcorrupt -i 200808.avi -an -c:v h264_nvenc -preset:v p7 -profile:v high -rc:v constqp -rc-lookahead 1 -spatial-aq 0 -temporal-aq 1 -b_adapt 1 -init_qpI 22 -init_qpP 22 -init_qpB 26 -weighted_pred 0 -coder cabac -b_ref_mode 2 -dpb_size 4 -multipass 0 -g 60 -bf 3 -pix_fmt yuv420p -color_range tv -color_primaries bt709 -color_trc bt709 -colorspace bt709 -movflags +faststart output.mp4
ArgList:

ffmpeg version N-98966-g7a89f382a3-g0271098e6c+4 Copyright (c) 2000-2020 the FFmpeg developers
  built with gcc 10.2.0 (Rev1, Built by MSYS2 project)
  configuration:  --cc='ccache gcc' --cxx='ccache g++' --disable-autodetect --enable-amf --enable-bzlib --enable-cuda --enable-cuvid --enable-d3d11va --enable-dxva2 --enable-iconv --enable-lzma --enable-nvenc --enable-zlib --enable-sdl2 --enable-ffnvcodec --enable-nvdec --enable-cuda-llvm --enable-libmp3lame --enable-libopus --enable-libvorbis --enable-libvpx --enable-libx264 --enable-libx265 --enable-libdav1d --enable-libaom --disable-debug --enable-fontconfig --enable-libass --enable-libbluray --enable-libfreetype --enable-libmfx --enable-libmysofa --enable-libopencore-amrnb --enable-libopencore-amrwb --enable-libopenjpeg --enable-libsnappy --enable-libsoxr --enable-libspeex --enable-libtheora --enable-libtwolame --enable-libvidstab --enable-libvo-amrwbenc --enable-libwavpack --enable-libwebp --enable-libxml2 --enable-libzimg --enable-libshine --enable-gpl --enable-avisynth --enable-libxvid --enable-libopenmpt --enable-version3 --enable-librav1e --enable-libsrt --enable-libgsm --enable-libvmaf --enable-chromaprint --enable-decklink --enable-frei0r --enable-libbs2b --enable-libcaca --enable-libcdio --enable-libfdk-aac --enable-libflite --enable-libfribidi --enable-libgme --enable-libilbc --enable-libsvthevc --enable-libsvtav1 --enable-libsvtvp9 --enable-libkvazaar --enable-libmodplug --enable-librtmp --enable-librubberband --enable-libtesseract --enable-libxavs --enable-libzmq --enable-libzvbi --enable-openal --enable-libcodec2 --enable-ladspa --enable-libglslang --enable-vulkan --enable-opencl --enable-opengl --enable-libnpp --enable-libopenh264 --enable-openssl --extra-cflags=-fopenmp --extra-libs=-lgomp --extra-cflags=-DLIBTWOLAME_STATIC --extra-libs=-lstdc++ --extra-cflags=-DCACA_STATIC --extra-cflags=-DMODPLUG_STATIC --extra-cflags=-DCHROMAPRINT_NODLL --extra-libs=-lstdc++ --extra-cflags=-DZMQ_STATIC --extra-libs=-lpsapi --extra-cflags=-DLIBXML_STATIC --extra-libs=-liconv --disable-w32threads --extra-cflags=-DKVZ_STATIC_LIB --enable-nonfree --extra-cflags='-IC:/PROGRA~1/NVIDIA~2/CUDA/v11.0/include' --extra-ldflags='-LC:/PROGRA~1/NVIDIA~2/CUDA/v11.0/lib/x64' --extra-cflags=-DAL_LIBTYPE_STATIC --extra-cflags='-IC:/bin/media-autobuild_suite-master/local64/include/AL'
  libavutil      56. 58.100 / 56. 58.100
  libavcodec     58.101.101 / 58.101.101
  libavformat    58. 51.101 / 58. 51.101
  libavdevice    58. 11.101 / 58. 11.101
  libavfilter     7. 87.100 /  7. 87.100
  libswscale      5.  8.100 /  5.  8.100
  libswresample   3.  8.100 /  3.  8.100
  libpostproc    55.  8.100 / 55.  8.100
Input #0, avi, from '200808.avi':
  Metadata:
    encoder         : Lavf58.49.100
  Duration: 00:02:01.05, start: 0.000000, bitrate: 745549 kb/s
    Stream #0:0: Video: rawvideo (I420 / 0x30323449), yuv420p, 1920x1080, 745750 kb/s, SAR 1:1 DAR 16:9, 29.97 fps, 29.97 tbr, 29.97 tbn, 29.97 tbc
Stream mapping:
  Stream #0:0 -> #0:0 (rawvideo (native) -> h264 (h264_nvenc))
Press [q] to stop, [?] for help
Output #0, mp4, to 'output.mp4':
  Metadata:
    encoder         : Lavf58.51.101
    Metadata:
      cpb: bitrate max/min/avg: 0/0/2000000 buffer size: 4000000 vbv_delay: N/A
    Stream #0:0: Video: h264 (h264_nvenc) (High) (avc1 / 0x31637661), yuv420p(tv, bt709), 1920x1080 [SAR 1:1 DAR 16:9], q=-1--1, 2000 kb/s, 29.97 fps, 30k tbn, 29.97 tbc
      encoder         : Lavc58.101.101 h264_nvenc
    Side data:
[mp4 @ 000002376b9d7c00] Starting second pass: moving the moov atom to the beginning of the file
frame= 3628 fps=138 q=21.0 Lsize=  145898kB time=00:02:00.92 bitrate=9884.1kbits/s dup=1 drop=0 speed= 4.6x    
video:145853kB audio:0kB subtitle:0kB other streams:0kB global headers:0kB muxing overhead: 0.030993%
DEBUG ExitCode: 0
DEBUG Invoke-Process
File: ffmpeg
Arg: -y -nostats -i output.mp4 -i 200808.avi -filter_complex libvmaf=vmaf_v0.6.1.pkl -an -f null -
ArgList:

ffmpeg version N-98966-g7a89f382a3-g0271098e6c+4 Copyright (c) 2000-2020 the FFmpeg developers
  built with gcc 10.2.0 (Rev1, Built by MSYS2 project)
  configuration:  --cc='ccache gcc' --cxx='ccache g++' --disable-autodetect --enable-amf --enable-bzlib --enable-cuda --enable-cuvid --enable-d3d11va --enable-dxva2 --enable-iconv --enable-lzma --enable-nvenc --enable-zlib --enable-sdl2 --enable-ffnvcodec --enable-nvdec --enable-cuda-llvm --enable-libmp3lame --enable-libopus --enable-libvorbis --enable-libvpx --enable-libx264 --enable-libx265 --enable-libdav1d --enable-libaom --disable-debug --enable-fontconfig --enable-libass --enable-libbluray --enable-libfreetype --enable-libmfx --enable-libmysofa --enable-libopencore-amrnb --enable-libopencore-amrwb --enable-libopenjpeg --enable-libsnappy --enable-libsoxr --enable-libspeex --enable-libtheora --enable-libtwolame --enable-libvidstab --enable-libvo-amrwbenc --enable-libwavpack --enable-libwebp --enable-libxml2 --enable-libzimg --enable-libshine --enable-gpl --enable-avisynth --enable-libxvid --enable-libopenmpt --enable-version3 --enable-librav1e --enable-libsrt --enable-libgsm --enable-libvmaf --enable-chromaprint --enable-decklink --enable-frei0r --enable-libbs2b --enable-libcaca --enable-libcdio --enable-libfdk-aac --enable-libflite --enable-libfribidi --enable-libgme --enable-libilbc --enable-libsvthevc --enable-libsvtav1 --enable-libsvtvp9 --enable-libkvazaar --enable-libmodplug --enable-librtmp --enable-librubberband --enable-libtesseract --enable-libxavs --enable-libzmq --enable-libzvbi --enable-openal --enable-libcodec2 --enable-ladspa --enable-libglslang --enable-vulkan --enable-opencl --enable-opengl --enable-libnpp --enable-libopenh264 --enable-openssl --extra-cflags=-fopenmp --extra-libs=-lgomp --extra-cflags=-DLIBTWOLAME_STATIC --extra-libs=-lstdc++ --extra-cflags=-DCACA_STATIC --extra-cflags=-DMODPLUG_STATIC --extra-cflags=-DCHROMAPRINT_NODLL --extra-libs=-lstdc++ --extra-cflags=-DZMQ_STATIC --extra-libs=-lpsapi --extra-cflags=-DLIBXML_STATIC --extra-libs=-liconv --disable-w32threads --extra-cflags=-DKVZ_STATIC_LIB --enable-nonfree --extra-cflags='-IC:/PROGRA~1/NVIDIA~2/CUDA/v11.0/include' --extra-ldflags='-LC:/PROGRA~1/NVIDIA~2/CUDA/v11.0/lib/x64' --extra-cflags=-DAL_LIBTYPE_STATIC --extra-cflags='-IC:/bin/media-autobuild_suite-master/local64/include/AL'
  libavutil      56. 58.100 / 56. 58.100
  libavcodec     58.101.101 / 58.101.101
  libavformat    58. 51.101 / 58. 51.101
  libavfilter     7. 87.100 /  7. 87.100
  libavdevice    58. 11.101 / 58. 11.101
  libswscale      5.  8.100 /  5.  8.100
  libpostproc    55.  8.100 / 55.  8.100
  libswresample   3.  8.100 /  3.  8.100
Input #0, mov,mp4,m4a,3gp,3g2,mj2, from 'output.mp4':
  Metadata:
    major_brand     : isom
    minor_version   : 512
    encoder         : Lavf58.51.101
  Duration: 00:02:01.06, start: 0.000000, bitrate: 9873 kb/s
    compatible_brands: isomiso2avc1mp41
    Stream #0:0(und): Video: h264 (High) (avc1 / 0x31637661), yuv420p(tv, bt709), 1920x1080 [SAR 1:1 DAR 16:9], 9870 kb/s, 29.97 fps, 29.97 tbr, 30k tbn, 59.94 tbc (default)
    Metadata:
      handler_name    : VideoHandler
Input #1, avi, from '200808.avi':
  Metadata:
  Duration: 00:02:01.05, start: 0.000000, bitrate: 745549 kb/s
    encoder         : Lavf58.49.100
    Stream #1:0: Video: rawvideo (I420 / 0x30323449), yuv420p, 1920x1080, 745750 kb/s, SAR 1:1 DAR 16:9, 29.97 fps, 29.97 tbr, 29.97 tbn, 29.97 tbc
Stream mapping:
  Stream #0:0 (h264) -> libvmaf:main
  libvmaf -> Stream #0:0 (wrapped_avframe)
  Stream #1:0 (rawvideo) -> libvmaf:reference
Press [q] to stop, [?] for help
    major_brand     : isom
  Metadata:
    minor_version   : 512
    compatible_brands: isomiso2avc1mp41
    encoder         : Lavf58.51.101
    Stream #0:0: Video: wrapped_avframe, yuv420p, 1920x1080 [SAR 1:1 DAR 16:9], q=2-31, 200 kb/s, 29.97 fps, 29.97 tbn, 29.97 tbc (default)
    Metadata:
Output #0, null, to 'pipe:':
      encoder         : Lavc58.101.101 wrapped_avframe
frame= 3628 fps= 26 q=-0.0 Lsize=N/A time=00:02:01.05 bitrate=N/A speed=0.858x    
video:1899kB audio:0kB subtitle:0kB other streams:0kB global headers:0kB muxing overhead: unknown
[libvmaf @ 000001630b0c6a80] VMAF score: 96.076929
DEBUG ExitCode: 0
142.48MB
DEBUG Invoke-Process
File: ffmpeg
Arg: -y -nostats -analyzeduration 30M -probesize 100M -fflags +discardcorrupt -i 200808.avi -an -c:v h264_nvenc -preset:v p7 -profile:v high -rc:v constqp -rc-lookahead 1 -spatial-aq 0 -temporal-aq 1 -nonref_p 1 -init_qpI 22 -init_qpP 22 -init_qpB 26 -weighted_pred 0 -coder cabac -b_ref_mode 2 -dpb_size 4 -multipass 0 -g 60 -bf 3 -pix_fmt yuv420p -color_range tv -color_primaries bt709 -color_trc bt709 -colorspace bt709 -movflags +faststart output.mp4
ArgList:

ffmpeg version N-98966-g7a89f382a3-g0271098e6c+4 Copyright (c) 2000-2020 the FFmpeg developers
  built with gcc 10.2.0 (Rev1, Built by MSYS2 project)
  configuration:  --cc='ccache gcc' --cxx='ccache g++' --disable-autodetect --enable-amf --enable-bzlib --enable-cuda --enable-cuvid --enable-d3d11va --enable-dxva2 --enable-iconv --enable-lzma --enable-nvenc --enable-zlib --enable-sdl2 --enable-ffnvcodec --enable-nvdec --enable-cuda-llvm --enable-libmp3lame --enable-libopus --enable-libvorbis --enable-libvpx --enable-libx264 --enable-libx265 --enable-libdav1d --enable-libaom --disable-debug --enable-fontconfig --enable-libass --enable-libbluray --enable-libfreetype --enable-libmfx --enable-libmysofa --enable-libopencore-amrnb --enable-libopencore-amrwb --enable-libopenjpeg --enable-libsnappy --enable-libsoxr --enable-libspeex --enable-libtheora --enable-libtwolame --enable-libvidstab --enable-libvo-amrwbenc --enable-libwavpack --enable-libwebp --enable-libxml2 --enable-libzimg --enable-libshine --enable-gpl --enable-avisynth --enable-libxvid --enable-libopenmpt --enable-version3 --enable-librav1e --enable-libsrt --enable-libgsm --enable-libvmaf --enable-chromaprint --enable-decklink --enable-frei0r --enable-libbs2b --enable-libcaca --enable-libcdio --enable-libfdk-aac --enable-libflite --enable-libfribidi --enable-libgme --enable-libilbc --enable-libsvthevc --enable-libsvtav1 --enable-libsvtvp9 --enable-libkvazaar --enable-libmodplug --enable-librtmp --enable-librubberband --enable-libtesseract --enable-libxavs --enable-libzmq --enable-libzvbi --enable-openal --enable-libcodec2 --enable-ladspa --enable-libglslang --enable-vulkan --enable-opencl --enable-opengl --enable-libnpp --enable-libopenh264 --enable-openssl --extra-cflags=-fopenmp --extra-libs=-lgomp --extra-cflags=-DLIBTWOLAME_STATIC --extra-libs=-lstdc++ --extra-cflags=-DCACA_STATIC --extra-cflags=-DMODPLUG_STATIC --extra-cflags=-DCHROMAPRINT_NODLL --extra-libs=-lstdc++ --extra-cflags=-DZMQ_STATIC --extra-libs=-lpsapi --extra-cflags=-DLIBXML_STATIC --extra-libs=-liconv --disable-w32threads --extra-cflags=-DKVZ_STATIC_LIB --enable-nonfree --extra-cflags='-IC:/PROGRA~1/NVIDIA~2/CUDA/v11.0/include' --extra-ldflags='-LC:/PROGRA~1/NVIDIA~2/CUDA/v11.0/lib/x64' --extra-cflags=-DAL_LIBTYPE_STATIC --extra-cflags='-IC:/bin/media-autobuild_suite-master/local64/include/AL'
  libavutil      56. 58.100 / 56. 58.100
  libavcodec     58.101.101 / 58.101.101
  libavformat    58. 51.101 / 58. 51.101
  libavfilter     7. 87.100 /  7. 87.100
  libswscale      5.  8.100 /  5.  8.100
  libswresample   3.  8.100 /  3.  8.100
  libpostproc    55.  8.100 / 55.  8.100
  libavdevice    58. 11.101 / 58. 11.101
Input #0, avi, from '200808.avi':
  Metadata:
    encoder         : Lavf58.49.100
    Stream #0:0: Video: rawvideo (I420 / 0x30323449), yuv420p, 1920x1080, 745750 kb/s, SAR 1:1 DAR 16:9, 29.97 fps, 29.97 tbr, 29.97 tbn, 29.97 tbc
  Duration: 00:02:01.05, start: 0.000000, bitrate: 745549 kb/s
Stream mapping:
  Stream #0:0 -> #0:0 (rawvideo (native) -> h264 (h264_nvenc))
Press [q] to stop, [?] for help
Output #0, mp4, to 'output.mp4':
  Metadata:
    Stream #0:0: Video: h264 (h264_nvenc) (High) (avc1 / 0x31637661), yuv420p(tv, bt709), 1920x1080 [SAR 1:1 DAR 16:9], q=-1--1, 2000 kb/s, 29.97 fps, 30k tbn, 29.97 tbc
    encoder         : Lavf58.51.101
    Metadata:
      encoder         : Lavc58.101.101 h264_nvenc
    Side data:
      cpb: bitrate max/min/avg: 0/0/2000000 buffer size: 4000000 vbv_delay: N/A
[mp4 @ 000001de57397c00] Starting second pass: moving the moov atom to the beginning of the file
frame= 3628 fps= 79 q=21.0 Lsize=  145898kB time=00:02:00.92 bitrate=9884.1kbits/s dup=1 drop=0 speed=2.62x    
video:145853kB audio:0kB subtitle:0kB other streams:0kB global headers:0kB muxing overhead: 0.030993%
DEBUG ExitCode: 0
DEBUG Invoke-Process
File: ffmpeg
Arg: -y -nostats -i output.mp4 -i 200808.avi -filter_complex libvmaf=vmaf_v0.6.1.pkl -an -f null -
ArgList:

ffmpeg version N-98966-g7a89f382a3-g0271098e6c+4 Copyright (c) 2000-2020 the FFmpeg developers
  built with gcc 10.2.0 (Rev1, Built by MSYS2 project)
  configuration:  --cc='ccache gcc' --cxx='ccache g++' --disable-autodetect --enable-amf --enable-bzlib --enable-cuda --enable-cuvid --enable-d3d11va --enable-dxva2 --enable-iconv --enable-lzma --enable-nvenc --enable-zlib --enable-sdl2 --enable-ffnvcodec --enable-nvdec --enable-cuda-llvm --enable-libmp3lame --enable-libopus --enable-libvorbis --enable-libvpx --enable-libx264 --enable-libx265 --enable-libdav1d --enable-libaom --disable-debug --enable-fontconfig --enable-libass --enable-libbluray --enable-libfreetype --enable-libmfx --enable-libmysofa --enable-libopencore-amrnb --enable-libopencore-amrwb --enable-libopenjpeg --enable-libsnappy --enable-libsoxr --enable-libspeex --enable-libtheora --enable-libtwolame --enable-libvidstab --enable-libvo-amrwbenc --enable-libwavpack --enable-libwebp --enable-libxml2 --enable-libzimg --enable-libshine --enable-gpl --enable-avisynth --enable-libxvid --enable-libopenmpt --enable-version3 --enable-librav1e --enable-libsrt --enable-libgsm --enable-libvmaf --enable-chromaprint --enable-decklink --enable-frei0r --enable-libbs2b --enable-libcaca --enable-libcdio --enable-libfdk-aac --enable-libflite --enable-libfribidi --enable-libgme --enable-libilbc --enable-libsvthevc --enable-libsvtav1 --enable-libsvtvp9 --enable-libkvazaar --enable-libmodplug --enable-librtmp --enable-librubberband --enable-libtesseract --enable-libxavs --enable-libzmq --enable-libzvbi --enable-openal --enable-libcodec2 --enable-ladspa --enable-libglslang --enable-vulkan --enable-opencl --enable-opengl --enable-libnpp --enable-libopenh264 --enable-openssl --extra-cflags=-fopenmp --extra-libs=-lgomp --extra-cflags=-DLIBTWOLAME_STATIC --extra-libs=-lstdc++ --extra-cflags=-DCACA_STATIC --extra-cflags=-DMODPLUG_STATIC --extra-cflags=-DCHROMAPRINT_NODLL --extra-libs=-lstdc++ --extra-cflags=-DZMQ_STATIC --extra-libs=-lpsapi --extra-cflags=-DLIBXML_STATIC --extra-libs=-liconv --disable-w32threads --extra-cflags=-DKVZ_STATIC_LIB --enable-nonfree --extra-cflags='-IC:/PROGRA~1/NVIDIA~2/CUDA/v11.0/include' --extra-ldflags='-LC:/PROGRA~1/NVIDIA~2/CUDA/v11.0/lib/x64' --extra-cflags=-DAL_LIBTYPE_STATIC --extra-cflags='-IC:/bin/media-autobuild_suite-master/local64/include/AL'
  libavcodec     58.101.101 / 58.101.101
  libavformat    58. 51.101 / 58. 51.101
  libavdevice    58. 11.101 / 58. 11.101
  libavfilter     7. 87.100 /  7. 87.100
  libswscale      5.  8.100 /  5.  8.100
  libswresample   3.  8.100 /  3.  8.100
  libpostproc    55.  8.100 / 55.  8.100
  libavutil      56. 58.100 / 56. 58.100
Input #0, mov,mp4,m4a,3gp,3g2,mj2, from 'output.mp4':
    major_brand     : isom
    minor_version   : 512
    compatible_brands: isomiso2avc1mp41
  Metadata:
    encoder         : Lavf58.51.101
  Duration: 00:02:01.06, start: 0.000000, bitrate: 9873 kb/s
    Stream #0:0(und): Video: h264 (High) (avc1 / 0x31637661), yuv420p(tv, bt709), 1920x1080 [SAR 1:1 DAR 16:9], 9870 kb/s, 29.97 fps, 29.97 tbr, 30k tbn, 59.94 tbc (default)
      handler_name    : VideoHandler
    Metadata:
Input #1, avi, from '200808.avi':
  Metadata:
    encoder         : Lavf58.49.100
  Duration: 00:02:01.05, start: 0.000000, bitrate: 745549 kb/s
    Stream #1:0: Video: rawvideo (I420 / 0x30323449), yuv420p, 1920x1080, 745750 kb/s, SAR 1:1 DAR 16:9, 29.97 fps, 29.97 tbr, 29.97 tbn, 29.97 tbc
Stream mapping:
  Stream #0:0 (h264) -> libvmaf:main
  Stream #1:0 (rawvideo) -> libvmaf:reference
  libvmaf -> Stream #0:0 (wrapped_avframe)
Press [q] to stop, [?] for help
Output #0, null, to 'pipe:':
  Metadata:
    minor_version   : 512
    compatible_brands: isomiso2avc1mp41
    major_brand     : isom
    encoder         : Lavf58.51.101
    Stream #0:0: Video: wrapped_avframe, yuv420p, 1920x1080 [SAR 1:1 DAR 16:9], q=2-31, 200 kb/s, 29.97 fps, 29.97 tbn, 29.97 tbc (default)
    Metadata:
      encoder         : Lavc58.101.101 wrapped_avframe
frame= 3628 fps= 26 q=-0.0 Lsize=N/A time=00:02:01.05 bitrate=N/A speed=0.879x    
video:1899kB audio:0kB subtitle:0kB other streams:0kB global headers:0kB muxing overhead: unknown
[libvmaf @ 000002514285e440] VMAF score: 96.076929
DEBUG ExitCode: 0
142.48MB
DEBUG Invoke-Process
File: ffmpeg
Arg: -y -nostats -analyzeduration 30M -probesize 100M -fflags +discardcorrupt -i 200808.avi -an -c:v h264_nvenc -preset:v p7 -profile:v high -rc:v constqp -rc-lookahead 1 -spatial-aq 0 -temporal-aq 1 -strict_gop 1 -init_qpI 22 -init_qpP 22 -init_qpB 26 -weighted_pred 0 -coder cabac -b_ref_mode 2 -dpb_size 4 -multipass 0 -g 60 -bf 3 -pix_fmt yuv420p -color_range tv -color_primaries bt709 -color_trc bt709 -colorspace bt709 -movflags +faststart output.mp4
ArgList:

ffmpeg version N-98966-g7a89f382a3-g0271098e6c+4 Copyright (c) 2000-2020 the FFmpeg developers
  built with gcc 10.2.0 (Rev1, Built by MSYS2 project)
  configuration:  --cc='ccache gcc' --cxx='ccache g++' --disable-autodetect --enable-amf --enable-bzlib --enable-cuda --enable-cuvid --enable-d3d11va --enable-dxva2 --enable-iconv --enable-lzma --enable-nvenc --enable-zlib --enable-sdl2 --enable-ffnvcodec --enable-nvdec --enable-cuda-llvm --enable-libmp3lame --enable-libopus --enable-libvorbis --enable-libvpx --enable-libx264 --enable-libx265 --enable-libdav1d --enable-libaom --disable-debug --enable-fontconfig --enable-libass --enable-libbluray --enable-libfreetype --enable-libmfx --enable-libmysofa --enable-libopencore-amrnb --enable-libopencore-amrwb --enable-libopenjpeg --enable-libsnappy --enable-libsoxr --enable-libspeex --enable-libtheora --enable-libtwolame --enable-libvidstab --enable-libvo-amrwbenc --enable-libwavpack --enable-libwebp --enable-libxml2 --enable-libzimg --enable-libshine --enable-gpl --enable-avisynth --enable-libxvid --enable-libopenmpt --enable-version3 --enable-librav1e --enable-libsrt --enable-libgsm --enable-libvmaf --enable-chromaprint --enable-decklink --enable-frei0r --enable-libbs2b --enable-libcaca --enable-libcdio --enable-libfdk-aac --enable-libflite --enable-libfribidi --enable-libgme --enable-libilbc --enable-libsvthevc --enable-libsvtav1 --enable-libsvtvp9 --enable-libkvazaar --enable-libmodplug --enable-librtmp --enable-librubberband --enable-libtesseract --enable-libxavs --enable-libzmq --enable-libzvbi --enable-openal --enable-libcodec2 --enable-ladspa --enable-libglslang --enable-vulkan --enable-opencl --enable-opengl --enable-libnpp --enable-libopenh264 --enable-openssl --extra-cflags=-fopenmp --extra-libs=-lgomp --extra-cflags=-DLIBTWOLAME_STATIC --extra-libs=-lstdc++ --extra-cflags=-DCACA_STATIC --extra-cflags=-DMODPLUG_STATIC --extra-cflags=-DCHROMAPRINT_NODLL --extra-libs=-lstdc++ --extra-cflags=-DZMQ_STATIC --extra-libs=-lpsapi --extra-cflags=-DLIBXML_STATIC --extra-libs=-liconv --disable-w32threads --extra-cflags=-DKVZ_STATIC_LIB --enable-nonfree --extra-cflags='-IC:/PROGRA~1/NVIDIA~2/CUDA/v11.0/include' --extra-ldflags='-LC:/PROGRA~1/NVIDIA~2/CUDA/v11.0/lib/x64' --extra-cflags=-DAL_LIBTYPE_STATIC --extra-cflags='-IC:/bin/media-autobuild_suite-master/local64/include/AL'
  libavcodec     58.101.101 / 58.101.101
  libavutil      56. 58.100 / 56. 58.100
  libavdevice    58. 11.101 / 58. 11.101
  libavfilter     7. 87.100 /  7. 87.100
  libswscale      5.  8.100 /  5.  8.100
  libswresample   3.  8.100 /  3.  8.100
  libpostproc    55.  8.100 / 55.  8.100
  libavformat    58. 51.101 / 58. 51.101
Input #0, avi, from '200808.avi':
  Metadata:
    Stream #0:0: Video: rawvideo (I420 / 0x30323449), yuv420p, 1920x1080, 745750 kb/s, SAR 1:1 DAR 16:9, 29.97 fps, 29.97 tbr, 29.97 tbn, 29.97 tbc
    encoder         : Lavf58.49.100
  Duration: 00:02:01.05, start: 0.000000, bitrate: 745549 kb/s
Stream mapping:
  Stream #0:0 -> #0:0 (rawvideo (native) -> h264 (h264_nvenc))
Press [q] to stop, [?] for help
  Metadata:
Output #0, mp4, to 'output.mp4':
    Stream #0:0: Video: h264 (h264_nvenc) (High) (avc1 / 0x31637661), yuv420p(tv, bt709), 1920x1080 [SAR 1:1 DAR 16:9], q=-1--1, 2000 kb/s, 29.97 fps, 30k tbn, 29.97 tbc
    encoder         : Lavf58.51.101
    Side data:
      encoder         : Lavc58.101.101 h264_nvenc
    Metadata:
      cpb: bitrate max/min/avg: 0/0/2000000 buffer size: 4000000 vbv_delay: N/A
[mp4 @ 0000017f2d797c00] Starting second pass: moving the moov atom to the beginning of the file
frame= 3628 fps= 79 q=21.0 Lsize=  145898kB time=00:02:00.92 bitrate=9884.1kbits/s dup=1 drop=0 speed=2.63x    
video:145853kB audio:0kB subtitle:0kB other streams:0kB global headers:0kB muxing overhead: 0.030993%
DEBUG ExitCode: 0
DEBUG Invoke-Process
File: ffmpeg
Arg: -y -nostats -i output.mp4 -i 200808.avi -filter_complex libvmaf=vmaf_v0.6.1.pkl -an -f null -
ArgList:

ffmpeg version N-98966-g7a89f382a3-g0271098e6c+4 Copyright (c) 2000-2020 the FFmpeg developers
  configuration:  --cc='ccache gcc' --cxx='ccache g++' --disable-autodetect --enable-amf --enable-bzlib --enable-cuda --enable-cuvid --enable-d3d11va --enable-dxva2 --enable-iconv --enable-lzma --enable-nvenc --enable-zlib --enable-sdl2 --enable-ffnvcodec --enable-nvdec --enable-cuda-llvm --enable-libmp3lame --enable-libopus --enable-libvorbis --enable-libvpx --enable-libx264 --enable-libx265 --enable-libdav1d --enable-libaom --disable-debug --enable-fontconfig --enable-libass --enable-libbluray --enable-libfreetype --enable-libmfx --enable-libmysofa --enable-libopencore-amrnb --enable-libopencore-amrwb --enable-libopenjpeg --enable-libsnappy --enable-libsoxr --enable-libspeex --enable-libtheora --enable-libtwolame --enable-libvidstab --enable-libvo-amrwbenc --enable-libwavpack --enable-libwebp --enable-libxml2 --enable-libzimg --enable-libshine --enable-gpl --enable-avisynth --enable-libxvid --enable-libopenmpt --enable-version3 --enable-librav1e --enable-libsrt --enable-libgsm --enable-libvmaf --enable-chromaprint --enable-decklink --enable-frei0r --enable-libbs2b --enable-libcaca --enable-libcdio --enable-libfdk-aac --enable-libflite --enable-libfribidi --enable-libgme --enable-libilbc --enable-libsvthevc --enable-libsvtav1 --enable-libsvtvp9 --enable-libkvazaar --enable-libmodplug --enable-librtmp --enable-librubberband --enable-libtesseract --enable-libxavs --enable-libzmq --enable-libzvbi --enable-openal --enable-libcodec2 --enable-ladspa --enable-libglslang --enable-vulkan --enable-opencl --enable-opengl --enable-libnpp --enable-libopenh264 --enable-openssl --extra-cflags=-fopenmp --extra-libs=-lgomp --extra-cflags=-DLIBTWOLAME_STATIC --extra-libs=-lstdc++ --extra-cflags=-DCACA_STATIC --extra-cflags=-DMODPLUG_STATIC --extra-cflags=-DCHROMAPRINT_NODLL --extra-libs=-lstdc++ --extra-cflags=-DZMQ_STATIC --extra-libs=-lpsapi --extra-cflags=-DLIBXML_STATIC --extra-libs=-liconv --disable-w32threads --extra-cflags=-DKVZ_STATIC_LIB --enable-nonfree --extra-cflags='-IC:/PROGRA~1/NVIDIA~2/CUDA/v11.0/include' --extra-ldflags='-LC:/PROGRA~1/NVIDIA~2/CUDA/v11.0/lib/x64' --extra-cflags=-DAL_LIBTYPE_STATIC --extra-cflags='-IC:/bin/media-autobuild_suite-master/local64/include/AL'
  libavcodec     58.101.101 / 58.101.101
  libavformat    58. 51.101 / 58. 51.101
  libavdevice    58. 11.101 / 58. 11.101
  libavfilter     7. 87.100 /  7. 87.100
  libswscale      5.  8.100 /  5.  8.100
  libswresample   3.  8.100 /  3.  8.100
  built with gcc 10.2.0 (Rev1, Built by MSYS2 project)
  libpostproc    55.  8.100 / 55.  8.100
  libavutil      56. 58.100 / 56. 58.100
Input #0, mov,mp4,m4a,3gp,3g2,mj2, from 'output.mp4':
    major_brand     : isom
    compatible_brands: isomiso2avc1mp41
  Metadata:
    encoder         : Lavf58.51.101
  Duration: 00:02:01.06, start: 0.000000, bitrate: 9873 kb/s
    minor_version   : 512
    Stream #0:0(und): Video: h264 (High) (avc1 / 0x31637661), yuv420p(tv, bt709), 1920x1080 [SAR 1:1 DAR 16:9], 9870 kb/s, 29.97 fps, 29.97 tbr, 30k tbn, 59.94 tbc (default)
      handler_name    : VideoHandler
    Metadata:
Input #1, avi, from '200808.avi':
  Metadata:
    encoder         : Lavf58.49.100
  Duration: 00:02:01.05, start: 0.000000, bitrate: 745549 kb/s
    Stream #1:0: Video: rawvideo (I420 / 0x30323449), yuv420p, 1920x1080, 745750 kb/s, SAR 1:1 DAR 16:9, 29.97 fps, 29.97 tbr, 29.97 tbn, 29.97 tbc
Stream mapping:
  Stream #0:0 (h264) -> libvmaf:main
  Stream #1:0 (rawvideo) -> libvmaf:reference
Press [q] to stop, [?] for help
  libvmaf -> Stream #0:0 (wrapped_avframe)
    compatible_brands: isomiso2avc1mp41
Output #0, null, to 'pipe:':
    Stream #0:0: Video: wrapped_avframe, yuv420p, 1920x1080 [SAR 1:1 DAR 16:9], q=2-31, 200 kb/s, 29.97 fps, 29.97 tbn, 29.97 tbc (default)
    Metadata:
  Metadata:
    minor_version   : 512
    encoder         : Lavf58.51.101
    major_brand     : isom
      encoder         : Lavc58.101.101 wrapped_avframe
frame= 3628 fps= 26 q=-0.0 Lsize=N/A time=00:02:01.05 bitrate=N/A speed=0.856x    
video:1899kB audio:0kB subtitle:0kB other streams:0kB global headers:0kB muxing overhead: unknown
[libvmaf @ 0000012d1d2bdd00] VMAF score: 96.076929
DEBUG ExitCode: 0
142.48MB
DEBUG Invoke-Process
File: ffmpeg
Arg: -y -nostats -analyzeduration 30M -probesize 100M -fflags +discardcorrupt -i 200808.avi -an -c:v h264_nvenc -preset:v p7 -profile:v high -rc:v constqp -rc-lookahead 1 -spatial-aq 0 -temporal-aq 1 -zerolatency 1 -init_qpI 22 -init_qpP 22 -init_qpB 26 -weighted_pred 0 -coder cabac -b_ref_mode 2 -dpb_size 4 -multipass 0 -g 60 -bf 3 -pix_fmt yuv420p -color_range tv -color_primaries bt709 -color_trc bt709 -colorspace bt709 -movflags +faststart output.mp4
ArgList:

ffmpeg version N-98966-g7a89f382a3-g0271098e6c+4 Copyright (c) 2000-2020 the FFmpeg developers
  built with gcc 10.2.0 (Rev1, Built by MSYS2 project)
  configuration:  --cc='ccache gcc' --cxx='ccache g++' --disable-autodetect --enable-amf --enable-bzlib --enable-cuda --enable-cuvid --enable-d3d11va --enable-dxva2 --enable-iconv --enable-lzma --enable-nvenc --enable-zlib --enable-sdl2 --enable-ffnvcodec --enable-nvdec --enable-cuda-llvm --enable-libmp3lame --enable-libopus --enable-libvorbis --enable-libvpx --enable-libx264 --enable-libx265 --enable-libdav1d --enable-libaom --disable-debug --enable-fontconfig --enable-libass --enable-libbluray --enable-libfreetype --enable-libmfx --enable-libmysofa --enable-libopencore-amrnb --enable-libopencore-amrwb --enable-libopenjpeg --enable-libsnappy --enable-libsoxr --enable-libspeex --enable-libtheora --enable-libtwolame --enable-libvidstab --enable-libvo-amrwbenc --enable-libwavpack --enable-libwebp --enable-libxml2 --enable-libzimg --enable-libshine --enable-gpl --enable-avisynth --enable-libxvid --enable-libopenmpt --enable-version3 --enable-librav1e --enable-libsrt --enable-libgsm --enable-libvmaf --enable-chromaprint --enable-decklink --enable-frei0r --enable-libbs2b --enable-libcaca --enable-libcdio --enable-libfdk-aac --enable-libflite --enable-libfribidi --enable-libgme --enable-libilbc --enable-libsvthevc --enable-libsvtav1 --enable-libsvtvp9 --enable-libkvazaar --enable-libmodplug --enable-librtmp --enable-librubberband --enable-libtesseract --enable-libxavs --enable-libzmq --enable-libzvbi --enable-openal --enable-libcodec2 --enable-ladspa --enable-libglslang --enable-vulkan --enable-opencl --enable-opengl --enable-libnpp --enable-libopenh264 --enable-openssl --extra-cflags=-fopenmp --extra-libs=-lgomp --extra-cflags=-DLIBTWOLAME_STATIC --extra-libs=-lstdc++ --extra-cflags=-DCACA_STATIC --extra-cflags=-DMODPLUG_STATIC --extra-cflags=-DCHROMAPRINT_NODLL --extra-libs=-lstdc++ --extra-cflags=-DZMQ_STATIC --extra-libs=-lpsapi --extra-cflags=-DLIBXML_STATIC --extra-libs=-liconv --disable-w32threads --extra-cflags=-DKVZ_STATIC_LIB --enable-nonfree --extra-cflags='-IC:/PROGRA~1/NVIDIA~2/CUDA/v11.0/include' --extra-ldflags='-LC:/PROGRA~1/NVIDIA~2/CUDA/v11.0/lib/x64' --extra-cflags=-DAL_LIBTYPE_STATIC --extra-cflags='-IC:/bin/media-autobuild_suite-master/local64/include/AL'
  libavutil      56. 58.100 / 56. 58.100
  libavformat    58. 51.101 / 58. 51.101
  libavdevice    58. 11.101 / 58. 11.101
  libavfilter     7. 87.100 /  7. 87.100
  libswscale      5.  8.100 /  5.  8.100
  libswresample   3.  8.100 /  3.  8.100
  libpostproc    55.  8.100 / 55.  8.100
  libavcodec     58.101.101 / 58.101.101
Input #0, avi, from '200808.avi':
  Metadata:
  Duration: 00:02:01.05, start: 0.000000, bitrate: 745549 kb/s
    encoder         : Lavf58.49.100
    Stream #0:0: Video: rawvideo (I420 / 0x30323449), yuv420p, 1920x1080, 745750 kb/s, SAR 1:1 DAR 16:9, 29.97 fps, 29.97 tbr, 29.97 tbn, 29.97 tbc
Stream mapping:
  Stream #0:0 -> #0:0 (rawvideo (native) -> h264 (h264_nvenc))
Press [q] to stop, [?] for help
Output #0, mp4, to 'output.mp4':
    encoder         : Lavf58.51.101
    Stream #0:0: Video: h264 (h264_nvenc) (High) (avc1 / 0x31637661), yuv420p(tv, bt709), 1920x1080 [SAR 1:1 DAR 16:9], q=-1--1, 2000 kb/s, 29.97 fps, 30k tbn, 29.97 tbc
    Metadata:
    Side data:
  Metadata:
      cpb: bitrate max/min/avg: 0/0/2000000 buffer size: 4000000 vbv_delay: N/A
      encoder         : Lavc58.101.101 h264_nvenc
[h264_nvenc @ 000002166eb18d80] Failed unlocking input buffer!: generic error (20): 
Video encoding failed
Conversion failed!
DEBUG ExitCode: 1
DEBUG Invoke-Process
File: ffmpeg
Arg: -y -nostats -i output.mp4 -i 200808.avi -filter_complex libvmaf=vmaf_v0.6.1.pkl -an -f null -
ArgList:

ffmpeg version N-98966-g7a89f382a3-g0271098e6c+4 Copyright (c) 2000-2020 the FFmpeg developers
  built with gcc 10.2.0 (Rev1, Built by MSYS2 project)
  libavutil      56. 58.100 / 56. 58.100
  configuration:  --cc='ccache gcc' --cxx='ccache g++' --disable-autodetect --enable-amf --enable-bzlib --enable-cuda --enable-cuvid --enable-d3d11va --enable-dxva2 --enable-iconv --enable-lzma --enable-nvenc --enable-zlib --enable-sdl2 --enable-ffnvcodec --enable-nvdec --enable-cuda-llvm --enable-libmp3lame --enable-libopus --enable-libvorbis --enable-libvpx --enable-libx264 --enable-libx265 --enable-libdav1d --enable-libaom --disable-debug --enable-fontconfig --enable-libass --enable-libbluray --enable-libfreetype --enable-libmfx --enable-libmysofa --enable-libopencore-amrnb --enable-libopencore-amrwb --enable-libopenjpeg --enable-libsnappy --enable-libsoxr --enable-libspeex --enable-libtheora --enable-libtwolame --enable-libvidstab --enable-libvo-amrwbenc --enable-libwavpack --enable-libwebp --enable-libxml2 --enable-libzimg --enable-libshine --enable-gpl --enable-avisynth --enable-libxvid --enable-libopenmpt --enable-version3 --enable-librav1e --enable-libsrt --enable-libgsm --enable-libvmaf --enable-chromaprint --enable-decklink --enable-frei0r --enable-libbs2b --enable-libcaca --enable-libcdio --enable-libfdk-aac --enable-libflite --enable-libfribidi --enable-libgme --enable-libilbc --enable-libsvthevc --enable-libsvtav1 --enable-libsvtvp9 --enable-libkvazaar --enable-libmodplug --enable-librtmp --enable-librubberband --enable-libtesseract --enable-libxavs --enable-libzmq --enable-libzvbi --enable-openal --enable-libcodec2 --enable-ladspa --enable-libglslang --enable-vulkan --enable-opencl --enable-opengl --enable-libnpp --enable-libopenh264 --enable-openssl --extra-cflags=-fopenmp --extra-libs=-lgomp --extra-cflags=-DLIBTWOLAME_STATIC --extra-libs=-lstdc++ --extra-cflags=-DCACA_STATIC --extra-cflags=-DMODPLUG_STATIC --extra-cflags=-DCHROMAPRINT_NODLL --extra-libs=-lstdc++ --extra-cflags=-DZMQ_STATIC --extra-libs=-lpsapi --extra-cflags=-DLIBXML_STATIC --extra-libs=-liconv --disable-w32threads --extra-cflags=-DKVZ_STATIC_LIB --enable-nonfree --extra-cflags='-IC:/PROGRA~1/NVIDIA~2/CUDA/v11.0/include' --extra-ldflags='-LC:/PROGRA~1/NVIDIA~2/CUDA/v11.0/lib/x64' --extra-cflags=-DAL_LIBTYPE_STATIC --extra-cflags='-IC:/bin/media-autobuild_suite-master/local64/include/AL'
  libavcodec     58.101.101 / 58.101.101
  libavdevice    58. 11.101 / 58. 11.101
  libavformat    58. 51.101 / 58. 51.101
  libavfilter     7. 87.100 /  7. 87.100
  libswscale      5.  8.100 /  5.  8.100
  libswresample   3.  8.100 /  3.  8.100
  libpostproc    55.  8.100 / 55.  8.100
[mov,mp4,m4a,3gp,3g2,mj2 @ 000002168cd50540] moov atom not found
output.mp4: Invalid data found when processing input
DEBUG ExitCode: 1
0MB
**********************
PowerShell transcript end
End time: 20200906000814
**********************
